<?xml version="1.0" standalone="no"?>
<!DOCTYPE svg PUBLIC "-//W3C//DTD SVG 20010904//EN"
 "http://www.w3.org/TR/2001/REC-SVG-20010904/DTD/svg10.dtd">
<svg version="1.0" xmlns="http://www.w3.org/2000/svg"
 width="465.000000pt" height="465.000000pt" viewBox="0 0 465.000000 465.000000"
 preserveAspectRatio="xMidYMid meet">
<metadata>
Created by potrace 1.16, written by Peter Selinger 2001-2019
</metadata>
<g transform="translate(0.000000,465.000000) scale(0.100000,-0.100000)"
fill="#000000" stroke="none">
<path d="M1985 4599 c-71 -58 -265 -259 -265 -275 0 -5 -8 -19 -18 -30 -10
-10 -31 -41 -47 -69 -15 -27 -53 -81 -82 -118 -68 -85 -86 -127 -112 -252 -11
-55 -36 -155 -55 -223 -20 -68 -36 -134 -36 -147 0 -13 -5 -27 -10 -30 -6 -4
-8 -10 -5 -14 2 -5 0 -23 -6 -42 -6 -19 -12 -81 -14 -139 -2 -58 -6 -118 -8
-135 -3 -16 -8 -72 -12 -123 -7 -86 -6 -95 14 -122 12 -17 21 -43 20 -62 -2
-106 2 -143 17 -159 14 -16 15 -21 1 -48 -8 -17 -13 -40 -10 -51 8 -29 -5 -70
-22 -70 -8 0 -15 -8 -15 -17 0 -10 -7 -31 -16 -48 -8 -16 -13 -38 -10 -47 2
-10 -3 -32 -11 -49 -18 -37 -25 -216 -9 -223 6 -2 2 -5 -8 -5 -18 -1 -18 -2
-3 -19 10 -10 17 -34 17 -53 0 -22 3 -29 9 -21 6 10 10 9 14 -7 4 -18 1 -21
-24 -21 -19 0 -29 -5 -29 -15 0 -22 77 -20 142 4 29 11 79 25 110 32 44 9 59
17 64 33 11 33 44 56 81 56 46 0 85 24 108 67 10 19 30 41 44 50 14 8 42 37
61 64 39 54 60 62 60 24 0 -14 4 -25 9 -25 15 0 21 56 27 235 l6 170 -42 45
c-23 25 -59 77 -78 115 l-36 70 -4 227 -4 227 36 76 c20 41 39 94 43 117 15
95 112 132 235 89 133 -46 148 -47 148 -6 0 29 -19 43 -31 24 -6 -10 -9 -11
-9 -1 0 6 -9 12 -20 12 -11 0 -20 5 -20 12 0 6 -3 9 -6 5 -4 -3 -18 0 -33 7
-14 7 -46 12 -71 10 -25 -1 -57 -2 -71 -3 -14 -1 -42 -12 -62 -25 l-36 -25 9
24 c5 13 13 32 19 42 5 10 19 40 31 66 13 27 37 70 56 97 18 27 47 75 64 107
40 77 101 147 156 179 l45 26 64 -16 c53 -13 69 -14 85 -4 16 11 22 10 33 -6
10 -14 26 -18 71 -17 57 0 58 0 52 -24 -5 -19 -2 -25 9 -25 9 0 14 -4 10 -9
-3 -5 6 -21 20 -35 14 -14 25 -34 25 -46 0 -11 5 -20 10 -20 17 0 11 -41 -11
-71 -11 -16 -27 -29 -34 -29 -10 0 -13 -11 -10 -37 1 -21 4 -38 5 -38 1 0 3
-12 4 -26 1 -15 12 -38 25 -51 47 -49 31 -88 -36 -88 -55 0 -72 -10 -75 -43
-2 -23 -9 -33 -23 -36 -57 -10 -79 -46 -90 -151 -6 -50 -16 -96 -31 -143 -10
-31 -14 -63 -10 -87 5 -33 3 -41 -16 -54 -20 -15 -21 -16 -5 -34 21 -23 21
-30 0 -35 -13 -3 -9 -6 12 -12 66 -17 88 -65 31 -65 -19 0 -38 -5 -41 -10 -4
-6 -12 -10 -18 -9 -7 1 -21 -2 -31 -6 -13 -6 -36 -2 -65 9 -25 10 -55 19 -66
20 -38 4 -120 18 -137 23 -31 8 -20 -30 26 -93 37 -50 50 -60 78 -62 l32 -3
-27 29 c-24 25 -36 70 -22 84 5 4 131 -16 160 -26 12 -4 56 -14 89 -21 14 -3
28 -14 31 -25 7 -21 -17 -65 -28 -53 -4 3 -7 -4 -7 -16 0 -12 -4 -19 -10 -16
-5 3 -12 -6 -16 -20 -6 -25 -28 -33 -39 -15 -5 8 -11 8 -19 1 -7 -6 -22 -8
-34 -4 -13 3 -22 1 -22 -6 0 -6 12 -13 28 -17 15 -3 40 -10 56 -15 16 -5 44
-9 63 -9 20 0 32 -4 28 -10 -3 -5 -1 -10 4 -10 23 0 9 -42 -24 -74 -30 -30
-34 -38 -26 -60 12 -30 8 -56 -15 -96 -22 -37 -42 -45 -64 -25 -12 11 -19 12
-28 3 -9 -9 -12 -9 -12 1 0 7 -5 9 -10 6 -15 -9 16 -36 33 -29 10 3 15 -1 14
-13 -2 -12 9 -21 32 -29 39 -13 61 -38 61 -70 0 -13 5 -26 10 -29 6 -3 10 -15
10 -26 0 -27 26 -35 46 -14 58 57 96 56 144 -5 36 -46 45 -116 16 -132 -9 -5
-14 -13 -11 -18 3 -4 1 -20 -5 -34 -7 -18 -6 -26 1 -26 8 0 7 -5 -1 -15 -15
-18 -10 -18 60 0 30 8 84 22 120 31 36 8 78 22 93 31 69 37 81 42 90 36 5 -3
4 -9 -3 -13 -16 -10 16 -21 56 -19 16 0 53 -3 82 -7 l53 -7 -46 68 c-25 37
-45 73 -45 79 -1 6 -9 29 -20 51 -11 22 -20 47 -20 55 -1 8 -8 33 -16 55 -19
51 -28 173 -15 205 9 23 10 23 10 -12 1 -28 5 -36 15 -32 16 6 22 -8 31 -83 6
-45 4 -53 -9 -53 -28 0 -20 -49 9 -60 14 -5 25 -15 25 -22 0 -10 -2 -10 -9 0
-7 11 -9 11 -14 -2 -4 -9 -2 -16 4 -16 6 0 8 -4 4 -9 -8 -14 16 -61 28 -54 5
3 6 -3 2 -16 -7 -22 9 -30 19 -8 4 6 4 2 2 -10 -2 -13 4 -29 15 -39 10 -9 19
-22 19 -29 0 -13 62 -75 75 -75 24 0 95 -34 92 -44 -6 -17 35 -48 47 -36 14
14 26 13 26 -3 0 -14 48 -42 64 -38 5 1 12 -2 15 -8 4 -5 51 -16 106 -23 l99
-13 9 -35 c16 -63 51 -84 98 -60 10 6 19 15 19 20 0 4 -33 41 -74 82 -82 81
-101 115 -64 114 19 -1 23 4 20 26 -3 30 16 48 29 27 4 -7 11 -10 14 -7 4 4 3
13 -1 20 -5 7 -10 22 -11 32 -2 11 -10 27 -19 37 -19 21 -4 64 26 72 12 3 19
10 16 15 -3 6 0 13 6 15 7 3 -13 6 -44 6 -36 1 -58 5 -58 12 0 8 -5 8 -15 -1
-10 -9 -15 -9 -15 -1 0 6 -7 11 -15 11 -9 0 -18 6 -21 14 -3 8 -19 19 -35 25
-21 7 -29 16 -29 34 0 15 -9 28 -25 37 -28 15 -35 33 -9 23 14 -5 15 -3 4 17
-8 15 -9 25 -1 33 7 7 12 -2 17 -31 4 -24 11 -39 16 -36 6 4 8 22 5 40 -3 19
-2 34 4 34 13 0 11 27 -3 36 -8 5 -9 2 -5 -9 7 -18 -8 -22 -37 -11 -20 8 -21
24 -1 24 22 0 18 21 -5 27 -11 3 -20 10 -20 15 0 6 7 8 15 5 20 -8 28 8 10 23
-7 6 -12 17 -9 24 3 8 -2 16 -10 19 -18 7 -21 33 -6 42 6 4 16 -6 23 -22 6
-16 18 -28 25 -28 15 0 32 24 27 39 -10 31 -14 116 -6 116 5 0 12 -8 14 -17 9
-32 -3 80 -14 137 -6 30 -18 63 -26 72 -13 15 -13 16 6 11 26 -7 29 18 5 42
-10 10 -15 27 -12 45 3 17 1 30 -3 30 -14 0 -16 104 -2 125 12 18 13 18 13 2
0 -14 5 -17 20 -12 17 5 20 2 20 -23 0 -35 9 -45 26 -31 9 8 11 5 7 -11 -5
-20 23 -53 38 -44 9 5 20 -26 13 -37 -3 -5 -2 -14 2 -20 4 -8 9 -7 15 2 4 7
10 11 13 9 11 -12 28 -155 29 -259 2 -81 6 -116 15 -118 17 -6 15 -23 -2 -23
-26 0 -29 -22 -6 -40 13 -10 20 -22 16 -29 -11 -17 -26 -13 -27 7 0 11 -2 12
-6 4 -3 -7 8 -31 23 -53 26 -38 27 -42 10 -51 -15 -8 -16 -12 -5 -19 9 -6 10
-12 4 -16 -5 -5 -11 -24 -12 -43 l-2 -35 11 35 c9 31 11 33 19 15 4 -11 8 -32
8 -47 1 -15 6 -30 11 -33 6 -3 10 -14 10 -24 0 -10 10 -31 21 -45 17 -21 24
-25 30 -14 6 8 8 3 8 -17 0 -16 3 -52 7 -79 8 -53 -4 -69 -43 -60 -21 6 -21 5
-8 -33 10 -28 10 -39 2 -43 -15 -6 -22 -50 -8 -50 6 0 10 -5 9 -11 -2 -6 3
-14 11 -17 10 -3 12 0 8 12 -4 9 -2 16 4 16 6 0 8 -11 4 -28 -6 -30 36 -129
62 -145 7 -4 13 -15 13 -22 0 -8 5 -15 10 -15 6 0 10 -4 10 -10 0 -17 -28 -11
-39 8 -6 9 -11 13 -11 8 0 -5 -7 -3 -15 4 -58 48 -194 -79 -212 -198 -6 -37 2
-44 9 -7 7 42 32 50 96 30 12 -4 22 -13 22 -20 0 -17 69 -58 86 -51 8 3 14 12
14 21 0 8 9 15 20 15 11 0 17 5 15 13 -3 6 -1 18 4 26 8 12 12 12 25 2 8 -7
12 -19 9 -28 -3 -8 -1 -18 6 -22 13 -8 23 -89 11 -96 -4 -2 -5 -39 -2 -82 2
-43 5 -97 5 -120 1 -24 5 -39 11 -36 5 3 6 1 2 -6 -4 -6 -9 -51 -12 -99 -6
-132 -7 -137 -27 -134 -9 2 -20 -4 -23 -13 -3 -8 -10 -15 -15 -15 -4 0 -6 7
-3 15 4 10 0 15 -15 15 -12 0 -21 5 -21 10 0 19 -18 10 -25 -12 l-8 -23 -4 23
c-2 12 -8 22 -13 22 -11 0 -18 -57 -9 -72 5 -7 1 -20 -8 -30 -14 -16 -14 -19
2 -35 17 -16 17 -16 11 5 -5 13 -3 22 3 22 6 0 11 -13 11 -30 0 -16 -4 -30
-10 -30 -5 0 -10 -13 -10 -30 0 -16 -4 -30 -10 -30 -17 0 -83 149 -85 193 -1
44 -14 106 -46 222 -15 53 -19 103 -19 209 0 155 -11 169 -29 36 -7 -47 -16
-96 -21 -110 -15 -42 -43 -308 -45 -430 -4 -197 -16 -504 -21 -532 -3 -15 -10
-25 -17 -22 -14 5 -14 -47 -1 -80 5 -14 4 -17 -4 -12 -7 4 -15 25 -18 47 -4
21 -11 39 -16 39 -5 0 -7 -8 -3 -19 3 -12 0 -21 -10 -25 -8 -3 -15 -17 -15
-31 0 -15 -6 -25 -14 -25 -12 0 -14 -16 -10 -82 2 -46 4 -87 5 -93 0 -5 -4
-25 -9 -43 l-11 -32 172 2 172 3 6 46 c4 25 21 74 39 110 33 64 38 82 41 152
2 22 8 41 16 44 8 3 11 13 8 23 -3 10 -1 21 5 25 6 4 8 15 5 26 -4 11 -2 19 4
19 6 0 11 -12 11 -26 0 -14 4 -23 9 -20 5 3 12 -6 16 -21 3 -16 12 -31 18 -35
6 -3 12 -35 13 -70 2 -35 6 -74 9 -87 3 -13 2 -27 -4 -30 -11 -7 16 -132 32
-142 5 -4 3 -9 -4 -12 -8 -3 122 -6 288 -6 l303 -1 -6 48 c-3 26 -11 65 -17
87 -13 47 -11 42 -20 80 -14 57 -17 81 -23 165 -7 85 3 104 16 33 4 -21 7 59
8 177 0 118 -3 235 -8 260 -5 31 -7 8 -4 -74 1 -66 0 -125 -4 -130 -4 -6 -12
45 -19 114 -7 69 -15 144 -18 167 -2 23 -8 50 -13 60 -5 10 -15 43 -22 73 -7
30 -26 84 -41 119 -16 35 -29 68 -29 72 0 5 -13 38 -30 74 -16 36 -30 70 -30
75 0 6 -4 10 -10 10 -5 0 -17 17 -25 37 -9 21 -19 40 -23 43 -4 3 -15 28 -24
55 l-17 50 32 -35 c18 -19 43 -48 56 -65 l23 -30 -20 33 c-37 64 -124 154
-166 172 -23 9 -47 24 -54 33 -8 9 -27 19 -43 22 -21 5 -29 12 -29 29 0 12
-11 33 -25 46 -13 12 -22 26 -20 31 3 4 -4 14 -16 23 -15 10 -20 21 -16 35 3
12 2 19 -3 16 -4 -3 -11 7 -15 22 -3 16 -12 31 -18 35 -9 6 -9 10 1 16 11 7
10 16 -1 50 -10 30 -11 43 -3 47 8 3 7 7 -1 11 -7 3 -13 10 -13 15 0 6 4 8 9
5 5 -4 7 11 5 31 -2 21 -5 64 -8 96 -3 32 -10 65 -17 73 -8 10 -10 41 -5 109
4 52 4 101 -1 107 -4 7 -8 31 -9 54 0 22 -2 44 -5 50 -2 5 -4 20 -4 34 0 14
-4 28 -8 31 -5 3 -10 12 -11 20 -8 36 -32 79 -43 79 -8 0 -13 15 -14 43 -3
127 -26 306 -40 324 -6 6 -8 21 -4 32 4 15 -2 30 -24 53 -17 18 -41 53 -52 78
-12 25 -30 58 -41 73 -14 19 -20 43 -19 80 0 46 -8 86 -47 242 -11 42 -38 127
-52 160 -5 11 -21 56 -35 100 -33 95 -46 116 -56 88 -4 -10 -8 -34 -9 -53 -1
-34 -2 -34 -12 -10 -5 14 -19 46 -30 71 -16 36 -18 51 -9 67 20 37 12 91 -26
178 -38 88 -63 115 -88 94 -8 -7 -20 -8 -26 -4 -8 4 -9 3 -5 -4 4 -7 3 -12 -2
-12 -6 0 -13 8 -16 17 -6 15 -8 15 -16 3 -8 -12 -10 -12 -16 3 -3 9 -4 26 -1
37 3 11 1 20 -5 20 -5 0 -6 5 -3 10 3 6 0 10 -9 10 -8 0 -21 3 -30 6 -11 4
-16 1 -16 -10 0 -19 -19 -22 -25 -3 -2 6 -6 30 -8 52 -2 26 -8 40 -18 41 -25
1 -59 15 -59 25 0 5 12 2 28 -7 26 -16 26 -16 -3 9 -16 15 -36 26 -43 27 -7 0
-10 5 -7 10 4 7 -136 10 -412 9 l-418 -1 -60 -49z m639 -1346 c4 -5 11 -8 14
-9 4 0 19 -6 33 -13 37 -18 61 -80 66 -171 2 -41 9 -79 14 -85 27 -28 -5 -115
-53 -141 -26 -15 -68 -18 -68 -6 0 4 10 35 21 67 12 33 21 74 20 90 -2 44 -38
133 -72 179 -34 47 -35 50 -11 75 19 22 26 24 36 14z m-919 -533 l13 23 7 -22
c4 -13 2 -28 -3 -33 -7 -7 -7 -19 -2 -33 5 -12 5 -26 1 -31 -4 -5 -14 -25 -21
-44 -8 -19 -31 -66 -53 -105 -22 -38 -46 -82 -54 -96 -7 -15 -20 -32 -27 -38
-12 -10 -14 -6 -12 20 1 18 7 34 14 37 6 2 21 24 33 49 17 34 19 47 9 53 -9 5
-9 9 -1 14 15 10 52 91 56 124 1 15 4 28 5 30 4 4 7 20 10 50 3 27 3 27 7 2
l5 -24 13 24z m1610 -292 c4 -13 7 -27 6 -31 -1 -5 8 -6 19 -2 14 4 20 2 18
-6 -2 -7 6 -13 17 -14 13 0 19 -6 19 -17 -1 -10 2 -18 8 -18 5 0 7 -4 4 -9 -3
-5 0 -9 7 -8 33 1 47 -4 47 -17 0 -15 50 -31 88 -29 13 1 22 -4 22 -12 0 -8
-6 -15 -12 -16 -8 0 -8 -3 2 -7 8 -4 25 -13 37 -21 20 -14 20 -16 5 -28 -15
-11 -15 -12 4 -13 25 0 39 -15 47 -49 6 -25 -16 -57 -32 -46 -6 3 -19 -5 -31
-17 l-20 -22 -30 33 c-17 18 -30 36 -30 42 0 5 -10 9 -23 9 -14 0 -32 12 -45
30 -27 35 -28 50 -4 51 16 1 16 2 -1 6 -12 3 -16 11 -12 23 3 11 0 20 -10 24
-11 4 -14 12 -10 27 5 16 3 20 -6 17 -8 -3 -13 -12 -11 -22 2 -9 -2 -16 -8
-16 -5 0 -10 5 -10 11 0 5 -4 7 -10 4 -5 -3 -10 -1 -10 4 0 6 -7 11 -15 11 -8
0 -15 4 -15 10 0 5 -11 12 -25 16 -14 3 -25 12 -25 20 0 19 13 17 38 -6 22
-21 52 -27 52 -10 0 6 1 13 1 17 2 8 -49 41 -64 42 -5 1 -5 -4 -1 -11 4 -6 -5
-3 -19 8 -41 29 -37 41 8 24 23 -9 25 -8 15 9 -12 24 -13 31 -1 31 5 0 12 -10
16 -22z"/>
<path d="M2018 3574 c-77 -14 -88 -19 -88 -40 0 -8 -4 -14 -10 -14 -19 0 -9
-15 23 -36 22 -15 38 -19 49 -13 11 6 22 1 38 -16 14 -15 35 -25 52 -25 15 0
28 -3 28 -8 0 -4 18 -7 40 -7 23 0 40 4 40 11 0 6 11 16 23 23 18 10 23 19 19
38 -4 21 -2 25 11 20 25 -9 31 10 7 23 -11 6 -20 8 -20 4 0 -4 -11 2 -24 15
-32 30 -105 40 -188 25z"/>
<path d="M1050 1860 c-14 -5 -99 -32 -189 -60 l-164 -52 -94 -91 c-52 -50
-118 -123 -147 -162 -72 -95 -166 -260 -211 -370 -20 -49 -50 -113 -66 -142
-31 -55 -140 -163 -165 -163 -12 0 -14 -59 -14 -410 l0 -410 428 2 427 3 3 44
c3 39 -2 52 -37 102 -23 32 -41 61 -41 64 0 3 -11 18 -25 33 -14 15 -27 43
-30 62 -3 19 -10 49 -14 67 -5 17 -7 58 -5 90 2 32 6 117 8 188 5 130 15 205
41 300 16 56 23 151 12 161 -4 4 -7 2 -7 -4 0 -7 -5 -12 -11 -12 -6 0 -9 7 -5
15 3 8 1 15 -4 15 -6 0 -10 10 -10 22 0 12 -3 18 -7 15 -10 -11 -43 24 -43 45
0 10 -4 18 -10 18 -5 0 -10 -7 -10 -15 0 -21 -20 -19 -21 3 0 15 -16 -16 -35
-70 -4 -10 -10 -18 -15 -18 -5 0 -9 -12 -9 -27 0 -22 -2 -25 -10 -13 -8 13
-10 13 -10 -2 0 -10 -9 -25 -19 -35 -11 -10 -20 -25 -21 -33 -5 -29 23 -81 51
-96 16 -8 29 -21 29 -28 0 -8 3 -22 7 -32 4 -12 3 -15 -5 -10 -8 5 -12 -1 -12
-18 0 -30 -55 -96 -80 -96 -10 0 -24 -7 -31 -16 -19 -23 -94 -54 -130 -54 -16
0 -29 -4 -29 -8 0 -4 -21 -18 -46 -30 -41 -20 -56 -22 -133 -17 -105 8 -117
11 -103 28 6 6 10 15 10 20 -1 40 16 100 33 110 10 6 19 17 19 24 0 6 18 31
40 54 22 24 40 46 40 49 0 4 15 22 34 41 19 19 35 43 37 54 3 13 16 22 42 28
20 5 37 14 36 21 -4 31 3 46 20 46 27 0 35 17 11 23 -12 3 -20 14 -20 27 0 11
-4 18 -10 15 -13 -8 -13 8 0 21 6 6 11 27 12 46 1 25 5 35 14 31 9 -3 19 15
31 56 13 43 31 76 60 108 24 25 46 55 49 67 4 12 15 30 26 41 10 11 54 57 97
103 97 102 183 151 258 146 26 -2 49 -8 51 -14 8 -24 41 -6 95 50 31 33 56 60
54 59 -1 -1 -13 -5 -27 -9z"/>
<path d="M2435 1607 c-33 -89 -65 -184 -71 -212 -23 -97 -45 -180 -60 -218
-16 -44 -17 -47 -5 -47 10 0 61 103 61 123 0 6 14 41 30 76 18 37 42 121 60
205 16 77 36 162 44 189 8 26 12 47 8 47 -4 0 -34 -73 -67 -163z"/>
<path d="M3030 634 c0 -7 5 -16 10 -19 16 -10 12 -35 -5 -29 -15 6 -19 -4 -16
-38 1 -10 -3 -18 -8 -18 -6 0 -11 5 -11 12 0 6 -9 3 -20 -7 -11 -10 -20 -24
-20 -32 0 -9 -5 -11 -12 -7 -9 6 -9 3 0 -9 12 -14 11 -19 -7 -38 -24 -26 -41
-79 -36 -112 11 -68 9 -88 -10 -80 -18 6 -50 63 -37 63 5 0 7 12 4 26 -3 16
-9 23 -19 20 -8 -4 -17 4 -24 21 l-10 26 -21 -23 c-16 -17 -21 -34 -19 -73 1
-27 4 -53 6 -57 3 -4 9 -45 15 -91 6 -46 13 -93 15 -104 2 -11 4 -30 4 -42 l1
-23 195 0 c107 0 195 1 196 3 0 1 2 22 5 47 3 25 9 58 14 74 13 38 13 86 0 86
-9 0 -14 -17 -13 -48 1 -7 -5 -11 -13 -8 -8 3 -14 -1 -14 -9 0 -8 -4 -15 -10
-15 -5 0 -10 -10 -10 -22 0 -17 -3 -19 -9 -9 -7 11 -9 11 -13 0 -3 -8 -9 -11
-13 -7 -5 5 -1 16 8 26 10 10 14 22 11 25 -4 4 -1 14 7 23 13 16 15 78 7 232
-2 35 0 66 5 69 4 2 4 10 0 16 -4 7 -8 14 -9 17 0 3 -6 18 -12 33 -7 16 -9 33
-6 39 4 6 -1 17 -11 24 -10 8 -16 17 -12 20 3 4 0 12 -7 20 -17 16 -76 15 -76
-2z"/>
</g>
</svg>
